<?xml version="1.0" encoding="UTF-8" standalone="no"?>
<!DOCTYPE svg PUBLIC "-//W3C//DTD SVG 1.1//EN" "http://www.w3.org/Graphics/SVG/1.1/DTD/svg11.dtd">
<svg width="100%" height="100%" viewBox="0 0 402 333" version="1.1" xmlns="http://www.w3.org/2000/svg" xmlns:xlink="http://www.w3.org/1999/xlink" xml:space="preserve" style="fill-rule:evenodd;clip-rule:evenodd;stroke-linecap:round;">
    <g transform="matrix(0.947736,0,0,12.3957,21.0089,-6606.57)">
        <rect x="-22.167" y="532.974" width="424.147" height="26.498"/>
    </g>
    <g transform="matrix(1.08566,0,0,0.627493,-24.6676,-6.47925)">
        <rect x="42.599" y="41.487" width="331.752" height="480.934"/>
        <path d="M379.878,531.982L37.073,531.982L37.073,31.925L379.878,31.925L379.878,531.982ZM48.126,51.049L48.126,512.859L368.824,512.859L368.824,51.049L48.126,51.049Z" style="fill:white;"/>
    </g>
    <g transform="matrix(0.942352,0,0,0.942352,15.5954,18.269)">
        <path d="M46.997,112.853C-13.3,95.897 31.536,19.189 79.956,50.74L46.997,112.853Z" style="stroke:white;stroke-width:3px;"/>
    </g>
    <g transform="matrix(0.942352,0,0,0.942352,15.5954,18.269)">
        <path d="M314.895,44.984C362.622,11.461 405.751,87.095 350.283,106.125L314.895,44.984Z" style="stroke:white;stroke-width:3px;"/>
    </g>
    <g transform="matrix(0.942352,0,0,0.942352,15.5954,18.269)">
        <path d="M49.513,91.667C41.558,87.459 35.722,81.744 40.588,72.543C45.093,64.025 53.462,64.95 61.418,69.158L49.513,91.667Z" style="fill:rgb(255,250,250);stroke:black;stroke-width:1.06px;stroke-linecap:butt;stroke-linejoin:round;stroke-miterlimit:1.41421;"/>
    </g>
    <g transform="matrix(0.942352,0,0,0.942352,15.5954,18.269)">
        <path d="M337.716,83.667C345.671,79.459 351.507,73.744 346.641,64.543C342.136,56.025 333.767,56.95 325.811,61.158L337.716,83.667Z" style="fill:white;"/>
    </g>
    <g transform="matrix(0.942352,0,0,0.942352,15.5954,18.269)">
        <clipPath id="_clip1">
            <rect x="37.563" y="1.363" width="329.195" height="264.062"/>
        </clipPath>
        <g clip-path="url(#_clip1)">
            <path d="M195.512,13.124C255.877,13.124 312.465,21.757 341.964,79.753C368.442,144.759 359.026,214.857 363.064,283.559C366.532,342.551 374.221,410.704 346.854,465.371C318.064,522.885 246.124,537.353 186.854,535.234C140.299,533.568 84.06,518.38 57.785,475.845C26.959,425.945 41.553,351.747 43.792,296.223C46.444,230.452 25.977,164.481 47.584,100.122C69.999,33.359 130.451,18.271 195.512,13.124" style="stroke:white;stroke-width:3px;"/>
        </g>
    </g>
    <g transform="matrix(0.942352,0,0,0.942352,15.5954,18.269)">
        <path d="M206.169,94.16C217.007,157.163 319.991,140.505 305.199,76.963C291.935,19.983 202.567,35.755 206.169,94.16" style="fill:white;stroke:black;stroke-width:2.91px;"/>
    </g>
    <g transform="matrix(0.942352,0,0,0.942352,15.5954,18.269)">
        <path d="M83.103,104.35C97.15,159.2 184.967,145.157 181.657,90.137C177.691,24.242 69.673,36.957 83.103,104.35" style="fill:white;stroke:white;stroke-width:2.82px;"/>
    </g>
    <g transform="matrix(0.942352,0,0,0.942352,15.5954,18.269)">
        <path d="M218.594,169.762C218.64,177.953 220.455,187.149 218.906,195.863C216.815,199.815 212.713,200.233 209.177,201.83C204.287,201.063 200.175,197.852 198.214,193.278C196.959,183.332 198.682,173.702 198.999,163.752L218.594,169.762Z" style="fill:white;stroke:black;stroke-width:3px;"/>
    </g>
    <g transform="matrix(0.942352,0,0,0.942352,15.5954,18.269)">
        <ellipse cx="107.324" cy="95.404" rx="14.829" ry="16.062"/>
    </g>
    <g transform="matrix(0.942352,0,0,0.942352,15.5954,18.269)">
        <ellipse cx="114.069" cy="99.029" rx="3.496" ry="4.082" style="fill:white;"/>
    </g>
    <g transform="matrix(0.942352,0,0,0.942352,15.5954,18.269)">
        <ellipse cx="231.571" cy="91.404" rx="14.582" ry="16.062"/>
    </g>
    <g transform="matrix(0.942352,0,0,0.942352,15.5954,18.269)">
        <ellipse cx="238.204" cy="95.029" rx="3.438" ry="4.082" style="fill:white;"/>
    </g>
    <g transform="matrix(0.942352,0,0,0.942352,15.5954,18.269)">
        <path d="M176.217,168.87C169.747,184.55 179.825,215.905 197.38,192.778C196.125,182.832 197.848,173.202 198.165,163.252L176.217,168.87Z" style="fill:white;stroke:black;stroke-width:3px;"/>
    </g>
    <g transform="matrix(0.942352,0,0,0.942352,15.5954,18.269)">
        <path d="M176.913,138.045C176.02,117.154 215.851,114.542 220.555,132.029C225.247,149.475 178.874,153.527 176.913,138.045C175.348,125.682 176.913,138.045 176.913,138.045Z" style="stroke:white;stroke-width:2.55px;stroke-linecap:butt;stroke-linejoin:round;stroke-miterlimit:1.41421;"/>
    </g>
    <g transform="matrix(1.1579,0,0,1.1579,-29.3891,-117.312)">
        <path d="M200.713,236.435C210.043,237.04 204.578,228.375 216.725,227.698C226.849,227.134 238.758,241.807 250.869,236.542C261.732,231.819 253.426,212.095 253.686,212.257C263.247,218.238 282.585,239.635 259.82,256.794C250.789,263.6 223.635,263.241 214.139,258.493C213.651,258.249 207.558,262.374 198.232,262.291C189.226,262.211 181.89,258.175 181.115,259.001C176.219,264.214 152.612,261.984 144.181,258.688C121.076,249.655 130.193,220.768 148.391,212.257C148.488,212.212 138.933,232.478 148.881,235.986C164.514,241.498 173.66,226.713 187.727,228.548C195.081,229.507 191.093,237.071 200.713,236.435Z" style="fill:white;stroke:black;stroke-width:2.07px;stroke-linejoin:round;stroke-miterlimit:1.5;"/>
    </g>
    <g transform="matrix(0.947736,0,0,2.41587,21.0089,-1019.2)">
        <rect x="-22.167" y="532.974" width="424.147" height="26.498"/>
    </g>
    <g transform="matrix(0.811675,0,0,0.82093,10.7219,-122.755)">
        <text x="42.599px" y="530.108px" style="font-family:'TerminalVector', monospace;font-stretch:semi-condensed;font-size:65.12px;fill:none;">gosociety</text>
        <text x="42.599px" y="530.108px" style="font-family:'TerminalVector', monospace;font-stretch:semi-condensed;font-size:65.12px;fill:white;">gosociety</text>
    </g>
</svg>
